<?xml version="1.0" standalone="no"?>
<!DOCTYPE svg PUBLIC "-//W3C//DTD SVG 20010904//EN"
 "http://www.w3.org/TR/2001/REC-SVG-20010904/DTD/svg10.dtd">
<svg version="1.0" xmlns="http://www.w3.org/2000/svg"
 width="960.000000pt" height="960.000000pt" viewBox="0 0 960.000000 960.000000"
 preserveAspectRatio="xMidYMid meet">
<metadata>
Created by potrace 1.14, written by Peter Selinger 2001-2017
</metadata>
<g transform="translate(0.000000,960.000000) scale(0.100000,-0.100000)"
fill="#000000" stroke="none">
<path d="M2359 8788 c-15 -28 -19 -139 -7 -186 5 -21 12 -50 15 -67 3 -16 12
-35 19 -42 10 -10 14 -7 22 15 5 15 9 46 8 70 0 23 2 42 5 42 7 0 3 131 -5
165 -8 32 -41 34 -57 3z"/>
<path d="M2107 8675 c-19 -18 -22 -50 -7 -60 6 -3 10 -14 10 -23 1 -36 176
-179 196 -159 7 6 -12 40 -48 88 -16 20 -28 40 -28 43 0 3 -16 26 -35 52 -19
25 -35 42 -35 39 0 -4 -8 3 -18 15 -17 21 -19 21 -35 5z"/>
<path d="M2568 8626 c-41 -41 -115 -163 -105 -173 12 -11 50 11 90 53 78 82
102 116 90 128 -3 3 0 6 7 6 11 0 11 3 2 12 -22 22 -42 16 -84 -26z"/>
<path d="M2000 8502 c0 -6 -9 -8 -21 -5 -12 3 -25 0 -29 -7 -21 -35 48 -98
113 -104 19 -2 38 -5 43 -8 5 -3 27 -3 49 -2 22 2 57 4 77 4 75 2 56 34 -41
65 -31 10 -68 25 -83 32 -15 7 -40 14 -56 16 -15 2 -33 7 -40 11 -7 4 -12 3
-12 -2z"/>
<path d="M2775 8475 c-27 -14 -56 -24 -62 -25 -7 0 -13 -5 -13 -11 0 -5 -4 -8
-9 -4 -5 3 -12 1 -15 -4 -4 -5 -35 -24 -71 -43 -40 -20 -61 -36 -55 -42 13
-13 87 -11 140 5 25 7 48 12 53 11 4 -1 7 3 7 9 0 5 4 8 9 4 5 -3 12 -1 16 5
4 6 11 8 16 5 5 -4 9 -1 9 5 0 6 4 9 9 6 15 -9 95 68 89 86 -9 23 -67 19 -123
-7z"/>
<path d="M1938 8333 c-89 -36 -36 -67 103 -59 52 3 110 10 129 16 19 6 53 13
74 16 22 4 58 15 80 25 l41 18 -195 0 c-148 -1 -204 -4 -232 -16z"/>
<path d="M2597 8293 c-3 -2 -19 -5 -36 -5 -17 -1 -31 -3 -31 -5 0 -13 43 -41
68 -43 4 -1 17 -8 29 -15 12 -8 33 -17 45 -19 13 -3 23 -5 23 -6 0 -2 26 -6
87 -15 35 -5 68 12 68 34 0 11 -38 44 -53 47 -37 7 -62 13 -62 14 0 1 -22 4
-50 6 -27 2 -58 5 -67 8 -9 2 -19 2 -21 -1z"/>
<path d="M2223 8276 c-18 -6 -33 -14 -33 -18 0 -4 -7 -8 -16 -8 -27 0 -153
-71 -189 -107 -34 -34 -54 -77 -41 -90 17 -17 156 16 156 37 0 5 20 21 45 37
25 15 45 34 45 41 0 6 3 12 8 12 8 0 49 36 75 67 18 21 18 22 0 30 -11 5 -31
5 -50 -1z"/>
<path d="M2369 8179 c-19 -68 -21 -251 -2 -304 17 -51 33 -56 61 -21 28 37 23
137 -15 286 -9 36 -20 69 -24 74 -4 5 -13 -11 -20 -35z"/>
<path d="M2505 8142 c1 -42 7 -89 13 -104 6 -16 8 -28 5 -28 -4 0 -2 -5 5 -12
7 -7 12 -20 12 -30 0 -22 38 -58 55 -52 15 6 26 52 13 56 -5 2 -16 30 -24 63
-9 33 -21 66 -26 73 -8 8 -8 16 -1 23 6 6 25 -12 54 -53 24 -35 47 -67 51 -73
5 -5 35 -46 68 -90 33 -44 64 -85 70 -92 5 -7 10 -15 10 -18 0 -3 8 -13 18
-23 9 -10 31 -36 47 -58 17 -21 40 -49 53 -62 27 -28 27 -37 5 -60 -59 -59
-121 -171 -107 -193 3 -5 1 -9 -5 -9 -5 0 -8 -8 -6 -17 2 -10 4 -26 4 -35 1
-10 10 -27 21 -38 l21 -21 -60 -60 c-33 -33 -75 -78 -93 -101 -18 -23 -41 -49
-50 -60 -10 -10 -18 -22 -18 -27 0 -5 -3 -11 -8 -13 -28 -12 -227 -330 -293
-468 -17 -36 -35 -66 -40 -68 -5 -2 -9 -10 -9 -17 0 -7 -15 -46 -34 -86 -54
-119 -60 -134 -57 -143 1 -5 -2 -12 -7 -15 -9 -6 -86 -224 -87 -246 0 -5 -3
-14 -6 -20 -4 -5 -10 -23 -14 -40 -5 -16 -9 -32 -10 -35 -13 -45 -25 -92 -30
-119 -3 -19 -10 -42 -16 -52 -5 -11 -8 -19 -5 -19 2 0 -1 -19 -6 -42 -17 -77
-19 -83 -23 -113 -2 -16 -7 -43 -10 -60 -13 -70 -22 -171 -16 -180 3 -5 6 -89
7 -185 1 -162 9 -295 20 -311 2 -4 7 -28 10 -53 2 -25 12 -69 20 -98 9 -29 17
-69 18 -88 1 -42 24 -65 146 -147 47 -32 87 -60 90 -63 5 -6 242 -150 298
-182 18 -10 44 -26 58 -34 13 -9 24 -13 24 -9 0 4 7 2 15 -5 8 -7 41 -24 72
-39 57 -26 86 -29 110 -9 14 11 36 1 27 -13 -9 -14 -11 -99 -3 -99 4 0 6 -8 5
-17 -6 -40 37 -158 87 -238 29 -47 147 -153 204 -183 75 -40 193 -71 279 -74
63 -2 81 -11 46 -22 -28 -9 -64 -64 -69 -106 -8 -55 2 -83 42 -123 l35 -35
-37 -19 c-25 -12 -44 -32 -59 -62 -23 -46 -23 -69 -2 -110 11 -21 10 -25 -6
-35 -62 -37 -99 -101 -100 -173 0 -43 -3 -53 -17 -53 -20 0 -79 -32 -79 -42 0
-5 -5 -8 -11 -8 -25 0 -69 -69 -69 -110 0 -26 -4 -30 -27 -31 -74 -2 -144 -27
-185 -67 -16 -14 -28 -32 -28 -39 0 -18 -16 -16 -37 5 -38 38 -165 115 -193
117 -3 0 -11 4 -17 8 -7 5 -13 6 -13 3 0 -3 -15 1 -34 9 -18 8 -36 11 -40 8
-3 -4 -6 -2 -6 3 0 9 -38 9 -100 1 -14 -2 -36 -9 -50 -17 -14 -7 -26 -13 -27
-12 -2 1 -6 1 -10 1 -5 -1 -23 -2 -42 -3 -44 -1 -59 -24 -41 -65 7 -17 16 -31
21 -31 5 0 9 -5 9 -10 0 -13 53 -67 105 -105 22 -16 42 -32 45 -35 3 -4 22
-14 43 -23 36 -18 49 -36 25 -38 -43 -2 -70 -13 -133 -52 -19 -11 -106 -97
-131 -129 -7 -8 -23 -32 -36 -54 -35 -55 -92 -107 -146 -135 -47 -23 -58 -27
-100 -33 -32 -5 -46 -20 -30 -33 40 -32 125 -48 253 -48 191 0 272 12 365 54
52 23 137 91 146 115 10 31 22 4 29 -64 9 -96 12 -118 19 -129 4 -5 2 -12 -3
-15 -5 -3 -7 -14 -4 -24 2 -10 -5 -26 -16 -36 -29 -26 -28 -49 2 -40 12 4 24
10 27 14 3 4 21 15 40 25 89 45 201 151 225 213 10 23 21 42 26 42 5 0 8 3 8
7 -3 15 14 93 20 98 16 9 0 139 -24 198 -6 14 -2 17 20 17 14 0 36 5 48 11 33
17 77 68 77 89 0 10 4 21 8 24 5 3 7 18 4 34 -4 29 -3 29 46 29 50 0 85 16
138 61 25 21 64 101 64 130 0 13 10 24 28 30 25 9 81 58 107 93 20 28 32 78
29 123 -2 37 1 46 17 51 24 8 89 87 89 109 0 9 4 16 8 16 9 0 7 79 -4 122 -4
20 -2 28 7 28 17 0 69 50 69 67 0 7 4 13 9 13 7 0 8 87 1 115 -6 23 3 23 55 0
30 -14 66 -27 80 -29 38 -7 98 -27 111 -37 6 -5 13 -6 16 -3 5 4 79 -9 173
-31 11 -3 47 -7 80 -9 33 -3 87 -8 120 -12 33 -4 66 -7 73 -7 20 0 14 -12 -18
-36 -53 -39 -147 -167 -196 -268 -27 -54 -49 -102 -51 -108 -2 -11 -51 -160
-60 -185 -4 -8 -7 -24 -9 -35 -1 -11 -5 -31 -9 -45 -3 -14 -7 -39 -9 -55 -2
-17 -6 -44 -10 -60 -3 -17 -8 -46 -10 -65 -3 -19 -7 -51 -10 -70 -3 -19 -8
-64 -11 -100 -12 -159 -15 -189 -25 -214 -5 -14 -8 -26 -5 -26 2 0 -4 -20 -15
-45 -11 -25 -20 -49 -21 -53 0 -4 -7 -20 -14 -37 -7 -16 -25 -59 -40 -95 -32
-76 -58 -135 -91 -206 -13 -28 -24 -57 -24 -65 0 -8 -4 -19 -9 -25 -11 -11
-102 -243 -104 -262 0 -8 -11 -21 -24 -29 -12 -8 -23 -22 -23 -29 0 -8 -5 -14
-11 -14 -5 0 -8 -4 -5 -9 3 -5 -1 -15 -10 -22 -23 -19 -42 -60 -42 -92 0 -15
-9 -38 -20 -50 -20 -21 -60 -103 -76 -154 l-7 -23 1571 0 1572 0 22 27 c36 44
44 66 36 88 -4 11 -11 56 -15 100 -7 71 -11 83 -39 110 -30 29 -31 33 -25 90
7 80 3 658 -5 715 -4 25 -8 68 -10 97 l-4 52 39 18 c21 9 39 20 39 25 0 4 5 8
11 8 28 0 195 149 259 230 19 25 37 47 40 50 13 12 60 91 60 100 0 5 4 10 9
10 15 0 146 307 151 355 0 3 0 6 1 8 1 4 7 41 14 92 3 27 8 53 11 56 2 4 5 31
5 59 2 84 21 51 24 -44 2 -48 9 -94 16 -102 6 -8 8 -14 5 -14 -4 0 -2 -9 4
-20 6 -10 16 -17 23 -14 10 3 13 35 13 123 -1 66 -4 117 -8 114 -5 -2 -4 7 1
20 6 14 7 27 4 31 -3 3 -6 69 -8 146 -1 137 -1 141 23 165 14 14 31 25 39 25
35 0 102 61 130 117 24 51 28 69 27 145 -1 55 -6 93 -14 103 -7 8 -10 15 -6
15 4 0 -2 17 -13 38 -49 96 -128 174 -179 177 l-26 1 -1 182 c0 167 1 182 17
182 10 0 17 3 17 8 -3 20 2 32 16 32 8 0 16 -7 16 -15 1 -8 2 -20 3 -26 1 -15
40 -29 52 -21 17 13 19 36 9 93 -7 36 -7 36 24 31 22 -3 31 -10 31 -23 0 -11
5 -19 10 -19 6 0 10 6 10 14 0 8 15 17 34 20 45 9 52 30 18 61 -15 14 -30 25
-34 25 -16 0 -8 19 10 23 14 4 14 6 -5 12 -13 4 -23 12 -23 19 1 19 24 43 38
39 6 -3 12 1 12 7 0 6 10 10 23 8 12 -2 30 5 41 14 17 16 17 18 2 33 -9 9 -16
14 -16 10 0 -3 -9 -1 -20 5 -14 8 -26 8 -40 0 -21 -11 -25 -4 -14 24 3 8 11
13 18 10 7 -3 20 6 28 18 22 34 4 55 -45 54 -20 -1 -37 1 -37 4 0 11 16 26 45
42 33 18 53 43 43 53 -6 6 -47 -11 -58 -24 -3 -3 -29 -18 -58 -34 -44 -23 -53
-25 -58 -12 -4 8 -1 21 4 28 6 7 14 32 18 55 4 23 10 42 13 42 10 0 8 47 -2
56 -4 5 -10 -2 -14 -14 -3 -12 -10 -22 -15 -22 -5 0 -7 -4 -4 -9 3 -5 -1 -14
-9 -21 -12 -10 -16 -8 -23 10 -4 12 -11 21 -15 21 -29 -3 -47 1 -42 9 4 6 -6
7 -25 3 -26 -5 -32 -2 -37 16 -3 11 -12 21 -20 21 -8 0 -13 -6 -10 -13 6 -15
-29 -41 -43 -32 -13 8 -13 35 0 35 17 0 11 41 -11 71 -19 27 -22 29 -34 13
-20 -28 -45 -10 -45 31 0 30 -3 35 -24 35 -23 0 -39 -22 -41 -55 0 -5 -8 -11
-19 -13 -10 -2 -16 0 -12 6 3 5 -5 13 -19 16 -15 4 -25 14 -25 24 0 10 -7 28
-16 40 -12 18 -19 20 -30 12 -7 -7 -13 -15 -12 -18 0 -4 0 -35 -1 -69 -1 -50
-4 -63 -16 -63 -10 0 -15 7 -13 18 2 9 -3 16 -10 14 -7 -1 -15 5 -18 13 -3 8
-10 13 -15 10 -4 -3 -6 -12 -3 -19 3 -8 1 -17 -5 -21 -6 -3 -14 2 -18 12 -4
10 -15 25 -25 34 -18 17 -23 40 -11 52 8 8 12 83 13 222 0 114 -5 177 -22 255
-7 30 -13 60 -14 65 -1 6 -3 13 -4 18 -3 9 -5 15 -14 62 -4 22 -12 45 -16 50
-5 6 -11 22 -13 35 -5 29 -11 47 -39 109 -23 52 -28 87 -16 121 11 30 39 172
43 220 7 80 17 167 21 190 2 14 7 54 10 90 6 84 8 92 17 108 5 7 3 12 -3 12
-6 0 -9 4 -5 9 22 36 23 288 2 334 -16 32 -120 154 -146 171 -7 4 -22 17 -32
27 -11 11 -23 19 -28 19 -5 0 -11 4 -13 8 -1 4 -37 30 -78 57 -41 27 -77 51
-80 55 -13 14 -122 80 -175 106 -33 16 -63 33 -66 37 -3 5 -12 9 -20 10 -8 2
-20 6 -26 10 -7 5 -13 5 -13 0 0 -4 -4 -3 -8 3 -6 9 -235 105 -264 110 -5 1
-9 2 -10 4 -2 1 -12 3 -22 5 -16 3 -48 11 -76 20 -45 13 -92 25 -119 30 -19 3
-38 8 -43 11 -5 3 -30 7 -56 9 -26 2 -48 5 -49 6 -2 1 -12 3 -23 4 -11 1 -23
4 -27 5 -5 1 -12 3 -18 5 -5 1 -12 3 -15 4 -3 1 -31 4 -62 6 -31 1 -61 6 -66
9 -10 6 -130 19 -179 20 -13 0 -23 2 -23 6 0 6 -84 8 -295 9 -186 0 -365 -9
-475 -25 -58 -8 -106 -14 -150 -19 -19 -2 -35 -4 -35 -5 0 -1 -16 -3 -35 -5
-40 -5 -267 -57 -350 -81 -30 -8 -59 -16 -65 -17 -10 -2 -53 -18 -105 -39 -14
-5 -38 -16 -53 -24 -31 -15 -47 -11 -47 11 0 7 -16 23 -36 35 -78 49 -244 18
-376 -71 l-57 -38 -40 52 c-23 29 -46 59 -53 67 -7 8 -28 37 -48 66 -19 28
-48 66 -63 85 -25 31 -119 160 -142 197 -5 8 -16 22 -23 31 -7 9 -21 27 -30
40 -10 13 -31 25 -48 27 l-31 3 2 -77z m4520 -3479 c-4 -20 -14 -43 -23 -50
-15 -12 -15 -13 6 -19 18 -5 22 -12 18 -35 -6 -42 15 -54 58 -34 20 10 36 20
36 24 0 15 37 8 48 -9 12 -20 6 -54 -9 -45 -4 3 -6 -4 -4 -15 2 -11 0 -20 -6
-20 -12 0 -12 -27 1 -35 10 -6 52 33 117 110 18 22 35 36 38 33 7 -7 10 -224
6 -405 l-3 -123 -43 26 c-31 18 -51 23 -70 18 -35 -9 -76 -69 -84 -124 -1 -5
-22 -8 -68 -10 -37 -2 -99 -25 -113 -42 -8 -10 -52 -31 -98 -47 l-83 -30 -9
25 c-8 21 -5 30 16 52 89 93 174 267 207 425 17 78 13 254 -5 273 -7 7 53 92
66 93 4 1 5 -16 1 -36z"/>
<path d="M2286 8162 c-4 -7 -11 -10 -16 -7 -15 9 -119 -104 -141 -153 -25 -54
-19 -92 14 -92 12 0 31 12 42 27 11 14 25 32 32 38 7 7 9 15 6 19 -4 3 -2 6 4
6 8 0 21 26 21 43 0 1 12 26 27 55 14 29 25 58 23 64 -3 9 -6 9 -12 0z"/>
</g>
</svg>
